PathFileType	4	(x/y/z)	S06_P20_T30
DataRate	CameraRate	NumFrames	NumMarkers	Units	OrigDataRate	OrigDataStartFrame	OrigNumFrames
240	240	8	51	mm	240	1	347
Frame#	Time	Sternum			R.Acromium			L.Acromium			Top.Head			R.ASIS			L.ASIS			R.PSIS			L.PSIS			R.Great.Tro			L.Great.Tro			R.Iliac.Crest			L.Iliac.Crest			V.Sacral			R.Thigh.Upper.Post			R.Thigh.Lower.Ant			R.Thigh.Lower.Post			R.Thigh.Upper.Ant			R.Knee.Lat			R.Knee.Med			R.Shank.Upper.Post			R.Shank.Lower.Ant			R.Shank.Lower.Post			R.Shank.Upper.Ant			R.Ankle.Lat			R.Ankle.Med			R.Heel.Upper			R.Heel.Med			R.Heel.Lat			R.Toe.Lat			R.Toe.Med			R.Toe.Tip			L.Thigh.Upper.Post			L.Thigh.Lower.Ant			L.Thigh.Lower.Post			L.Thigh.Upper.Ant			L.Knee.Lat			L.Knee.Med			L.Shank.Upper.Post			L.Shank.Lower.Ant			L.Shank.Lower.Post			L.Shank.Upper.Ant			L.Ankle.Lat			L.Ankle.Med			L.Heel.Upper			L.Heel.Med			L.Heel.Lat			L.Toe.Lat			L.Toe.Med			L.Toe.Tip			Cervical.Spine			Back			
		X1	Y1	Z1	X2	Y2	Z2	X3	Y3	Z3	X4	Y4	Z4	X5	Y5	Z5	X6	Y6	Z6	X7	Y7	Z7	X8	Y8	Z8	X9	Y9	Z9	X10	Y10	Z10	X11	Y11	Z11	X12	Y12	Z12	X13	Y13	Z13	X14	Y14	Z14	X15	Y15	Z15	X16	Y16	Z16	X17	Y17	Z17	X18	Y18	Z18	X19	Y19	Z19	X20	Y20	Z20	X21	Y21	Z21	X22	Y22	Z22	X23	Y23	Z23	X24	Y24	Z24	X25	Y25	Z25	X26	Y26	Z26	X27	Y27	Z27	X28	Y28	Z28	X29	Y29	Z29	X30	Y30	Z30	X31	Y31	Z31	X32	Y32	Z32	X33	Y33	Z33	X34	Y34	Z34	X35	Y35	Z35	X36	Y36	Z36	X37	Y37	Z37	X38	Y38	Z38	X39	Y39	Z39	X40	Y40	Z40	X41	Y41	Z41	X42	Y42	Z42	X43	Y43	Z43	X44	Y44	Z44	X45	Y45	Z45	X46	Y46	Z46	X47	Y47	Z47	X48	Y48	Z48	X49	Y49	Z49	X50	Y50	Z50	X51	Y51	Z51	

1	0	NaN	NaN	NaN	-1355.5	1498.9	472.44	-1394.7	1501.4	123.53	-1324.7	1813.6	290.35	NaN	NaN	NaN	NaN	NaN	NaN	-1519.9	1085.2	338.55	-1526.5	1087.6	258.87	NaN	NaN	NaN	-1417.4	982.66	123.04	-1403.8	1134.1	462.06	-1394.8	1124.5	141.45	-1541	1053.9	303.94	-1434.3	738.85	461.97	-1372.4	649.82	420.75	-1460.4	655.84	441.52	-1350.5	733.84	441.82	-1445.8	535.98	421.17	-1452.5	548.91	291.54	-1552.1	330.05	416.52	NaN	NaN	NaN	-1580.9	257.5	397.32	NaN	NaN	NaN	-1596.8	125.84	369.52	-1586.8	129.05	274.22	-1674	93.11	321.46	-1665.5	58.438	293.5	-1669.4	63.683	357.51	-1492.3	42.095	402.07	-1463.9	40.045	280.46	-1395.3	47.372	326.95	-1281.6	738.28	137.74	-1218.5	676.57	204.53	-1279.2	649.26	155.38	-1233.5	768.77	182.76	-1261.8	558.96	175.32	-1241.1	569.82	296.56	-1246.4	330.87	182.35	NaN	NaN	NaN	-1234.7	261.58	198.84	-1196.5	360.67	165.7	-1146.3	129.63	191.37	-1135	140.98	282.1	-1205	65.214	240.73	-1181.5	40.971	272.86	-1181.6	40.88	212.63	-1019.1	105.37	167.32	NaN	NaN	NaN	-941.11	165.5	227.78	-1431.8	1554.7	303.75	-1504	1288.2	309.45
2	0.0041667	NaN	NaN	NaN	-1350.8	1498.3	472.16	-1389.9	1500.8	123.21	-1320.2	1813.1	290.14	NaN	NaN	NaN	NaN	NaN	NaN	-1515.1	1084.5	338.23	-1521.7	1086.9	258.55	NaN	NaN	NaN	-1412.5	981.97	122.85	-1399	1133.6	461.77	-1389.8	1123.7	141.06	-1536.1	1053.2	303.61	-1429.2	738.34	461.77	-1367.1	649.36	420.66	-1455.2	655.29	441.4	-1345.3	733.44	441.67	-1441.2	535.47	421.25	-1447.4	548.29	291.61	-1548.9	330.32	416.55	NaN	NaN	NaN	-1578.8	258.39	397.16	NaN	NaN	NaN	-1596.7	127.01	369.19	-1585.9	129.62	275.1	-1673.2	94.638	321.37	-1665	60.022	293.34	-1669	65.235	357.37	-1492.1	42.06	401.96	-1463.7	39.965	280.43	-1395.3	47.032	327	-1277.1	737.47	138	-1213.8	675.71	204.54	-1274.7	648.42	155.74	-1228.7	767.87	182.72	-1257.5	558.17	175.56	-1237.1	569.04	296.77	-1243	329.92	182.32	-1162.3	286.95	178.97	-1231.1	260.32	198.65	-1192	359.16	166.42	-1143.7	128.44	191.79	-1132.9	139.63	282.58	-1202.7	64.856	240.56	-1180	40.65	273	-1179.6	40.454	212.56	-1016.3	103.48	168.74	NaN	NaN	NaN	-938.68	163.26	229.72	-1427.2	1554.1	303.47	-1499.2	1287.6	309.08
3	0.0083333	NaN	NaN	NaN	-1345.9	1497.7	471.87	-1384.8	1500.1	122.87	-1315.6	1812.5	289.91	NaN	NaN	NaN	NaN	NaN	NaN	-1510.1	1083.8	337.89	-1516.6	1086.1	258.22	NaN	NaN	NaN	-1407.5	981.25	122.64	-1394.1	1133.1	461.47	-1384.6	1122.8	140.66	-1530.9	1052.4	303.26	-1423.8	737.8	461.58	-1361.6	648.89	420.59	-1449.7	654.7	441.3	-1339.9	733.01	441.55	-1436.3	534.93	421.36	-1442.1	547.64	291.7	-1545.6	330.66	416.58	NaN	NaN	NaN	-1576.6	259.35	397.02	NaN	NaN	NaN	-1596.5	128.25	368.89	-1584.9	130.29	275.97	-1672.4	96.308	321.3	-1664.6	61.758	293.19	-1668.7	66.927	357.24	-1492	42.019	401.86	-1463.5	39.891	280.4	-1395.2	46.682	327.05	-1272.4	736.62	138.26	-1209	674.82	204.53	-1270	647.55	156.13	-1223.7	766.93	182.65	-1252.9	557.35	175.81	-1232.9	568.23	296.96	-1239.5	328.93	182.33	-1159.2	285.73	179.55	-1227.5	259.02	198.51	-1187.4	357.6	167.17	-1141	127.21	192.23	-1130.8	138.23	283.09	-1200.4	64.516	240.4	-1178.4	40.334	273.15	-1177.6	40.047	212.5	-1013.4	101.5	170.19	NaN	NaN	NaN	-936.22	160.87	231.69	-1422.4	1553.5	303.18	-1494.3	1286.9	308.69
4	0.0125	NaN	NaN	NaN	-1340.9	1497	471.57	-1379.6	1499.4	122.51	-1310.8	1812	289.68	NaN	NaN	NaN	NaN	NaN	NaN	-1504.9	1083.1	337.53	-1511.4	1085.3	257.87	NaN	NaN	NaN	-1402.2	980.5	122.43	-1389	1132.5	461.15	-1379.1	1121.9	140.25	-1525.6	1051.6	302.9	-1418.1	737.23	461.39	-1355.8	648.41	420.56	-1443.9	654.08	441.2	-1334.2	732.58	441.46	-1431.2	534.37	421.52	-1436.4	546.94	291.83	-1542.1	331.08	416.63	NaN	NaN	NaN	-1574.2	260.38	396.9	NaN	NaN	NaN	-1596.1	129.55	368.64	-1583.8	131.05	276.82	-1671.5	98.132	321.26	-1664.1	63.656	293.05	-1668.2	68.766	357.12	-1491.8	41.974	401.76	-1463.3	39.827	280.37	-1395.2	46.326	327.11	-1267.6	735.74	138.52	-1204	673.89	204.51	-1265.2	646.66	156.53	-1218.5	765.95	182.56	-1248.3	556.49	176.06	-1228.5	567.4	297.14	-1235.9	327.91	182.37	-1156.1	284.45	180.15	-1223.8	257.71	198.41	-1182.7	355.98	167.94	-1138.3	125.94	192.7	-1128.7	136.78	283.62	-1198	64.204	240.27	-1177	40.029	273.3	-1175.6	39.671	212.46	-1010.5	99.411	171.64	NaN	NaN	NaN	-933.76	158.34	233.68	-1417.5	1552.9	302.87	-1489.1	1286.2	308.28
5	0.016667	NaN	NaN	NaN	-1335.7	1496.3	471.25	-1374.3	1498.8	122.14	-1305.8	1811.5	289.45	NaN	NaN	NaN	NaN	NaN	NaN	-1499.6	1082.4	337.16	-1506.1	1084.5	257.5	NaN	NaN	NaN	-1396.7	979.74	122.22	-1383.8	1131.9	460.81	-1373.6	1121	139.82	-1520.1	1050.9	302.53	-1412.1	736.63	461.22	-1349.8	647.92	420.58	-1437.9	653.43	441.13	-1328.4	732.15	441.41	-1425.8	533.81	421.72	-1430.5	546.2	292	-1538.5	331.57	416.69	NaN	NaN	NaN	-1571.7	261.48	396.82	NaN	NaN	NaN	-1595.5	130.92	368.44	-1582.6	131.93	277.65	-1670.5	100.12	321.24	-1663.5	65.73	292.93	-1667.7	70.765	357.03	-1491.6	41.925	401.67	-1463.1	39.778	280.34	-1395.1	45.967	327.16	-1262.6	734.84	138.77	-1198.8	672.93	204.49	-1260.3	645.75	156.94	-1213.1	764.95	182.43	-1243.5	555.62	176.3	-1224	566.56	297.3	-1232.3	326.88	182.44	-1152.9	283.12	180.76	-1220.2	256.39	198.36	-1177.9	354.33	168.74	-1135.6	124.65	193.2	-1126.7	135.3	284.17	-1195.7	63.932	240.17	-1175.5	39.744	273.44	-1173.7	39.338	212.43	-1007.7	97.239	173.08	NaN	NaN	NaN	-931.31	155.67	235.66	-1412.4	1552.3	302.54	-1483.9	1285.4	307.85
6	0.020833	NaN	NaN	NaN	-1330.5	1495.7	470.92	-1368.8	1498.1	121.76	-1300.8	1810.9	289.21	NaN	NaN	NaN	NaN	NaN	NaN	-1494.1	1081.7	336.76	-1500.6	1083.7	257.11	NaN	NaN	NaN	-1391.2	978.98	122	-1378.4	1131.4	460.47	-1367.9	1120.1	139.39	-1514.6	1050.1	302.13	-1405.8	736	461.06	-1343.6	647.43	420.67	-1431.5	652.74	441.08	-1322.4	731.71	441.41	-1420.2	533.23	421.97	-1424.3	545.41	292.21	-1534.8	332.15	416.77	NaN	NaN	NaN	-1569	262.67	396.76	NaN	NaN	NaN	-1594.8	132.36	368.31	-1581.2	132.91	278.44	-1669.4	102.29	321.26	-1662.8	67.994	292.83	-1667.2	72.934	356.95	-1491.5	41.874	401.59	-1462.9	39.746	280.3	-1395.1	45.605	327.22	-1257.6	733.92	139.02	-1193.6	671.95	204.45	-1255.3	644.82	157.36	-1207.7	763.93	182.28	-1238.7	554.72	176.54	-1219.4	565.72	297.44	-1228.7	325.84	182.56	-1149.6	281.76	181.39	-1216.6	255.09	198.36	-1173.1	352.65	169.54	-1133	123.34	193.71	-1124.6	133.79	284.75	-1193.4	63.704	240.1	-1174.2	39.484	273.59	-1171.9	39.054	212.42	-1004.9	94.993	174.49	NaN	NaN	NaN	-928.9	152.87	237.6	-1407.2	1551.7	302.2	-1478.5	1284.7	307.41
7	0.025	NaN	NaN	NaN	-1325.1	1495	470.58	-1363.3	1497.4	121.36	-1295.7	1810.4	288.97	NaN	NaN	NaN	NaN	NaN	NaN	-1488.6	1081	336.35	-1495	1082.9	256.7	NaN	NaN	NaN	-1385.4	978.21	121.77	-1373	1130.9	460.11	-1362.1	1119.3	138.94	-1508.9	1049.3	301.72	-1399.3	735.34	460.91	-1337.1	646.93	420.83	-1425	652.02	441.06	-1316.2	731.28	441.44	-1414.3	532.64	422.27	-1417.8	544.59	292.48	-1530.9	332.83	416.87	NaN	NaN	NaN	-1566.2	263.94	396.75	NaN	NaN	NaN	-1593.8	133.88	368.25	-1579.6	134.03	279.19	-1668.2	104.65	321.32	-1662	70.465	292.75	-1666.5	75.288	356.91	-1491.3	41.825	401.53	-1462.7	39.738	280.27	-1395.1	45.242	327.28	-1252.4	733	139.25	-1188.3	670.94	204.4	-1250.2	643.9	157.79	-1202.1	762.89	182.09	-1233.9	553.82	176.77	-1214.6	564.88	297.55	-1225.1	324.8	182.72	-1146.4	280.37	182.02	-1213.1	253.8	198.43	-1168.4	350.96	170.35	-1130.5	122.03	194.24	-1122.6	132.27	285.34	-1191.2	63.528	240.06	-1172.9	39.253	273.73	-1170.2	38.825	212.43	-1002.3	92.688	175.85	NaN	NaN	NaN	-926.55	149.96	239.48	-1402	1551.1	301.84	-1473.1	1284	306.96
8	0.029167	NaN	NaN	NaN	-1319.8	1494.4	470.23	-1357.8	1496.8	120.95	-1290.4	1809.9	288.73	NaN	NaN	NaN	NaN	NaN	NaN	-1483	1080.3	335.91	-1489.3	1082.1	256.27	NaN	NaN	NaN	-1379.6	977.44	121.54	-1367.5	1130.3	459.74	-1356.2	1118.4	138.49	-1503.2	1048.6	301.3	-1392.6	734.66	460.8	-1330.5	646.43	421.07	-1418.1	651.26	441.08	-1309.9	730.87	441.52	-1408.1	532.03	422.63	-1411	543.72	292.81	-1526.9	333.61	417	NaN	NaN	NaN	-1563.2	265.3	396.78	NaN	NaN	NaN	-1592.6	135.49	368.27	-1577.9	135.28	279.91	-1666.8	107.22	321.42	-1661.2	73.159	292.71	-1665.8	77.841	356.9	-1491.1	41.782	401.47	-1462.4	39.756	280.25	-1395	44.877	327.34	-1247.3	732.07	139.48	-1182.9	669.92	204.33	-1245.1	642.98	158.23	-1196.4	761.85	181.87	-1229	552.91	176.99	-1209.8	564.05	297.64	-1221.5	323.77	182.92	-1143.2	278.97	182.66	-1209.7	252.55	198.56	-1163.7	349.28	171.15	-1128	120.73	194.78	-1120.6	130.75	285.93	-1189	63.405	240.06	-1171.7	39.058	273.88	-1168.6	38.657	212.45	-999.8	90.341	177.15	NaN	NaN	NaN	-924.26	146.93	241.28	-1396.6	1550.5	301.47	-1467.5	1283.4	306.5
